<?xml version="1.0" encoding="UTF-8" standalone="no"?>
<!-- Created with Inkscape (http://www.inkscape.org/) -->

<svg
   width="168.18283"
   height="28.857533"
   viewBox="0 0 44.498373 7.635222"
   version="1.1"
   id="svg4330"
   inkscape:export-filename="logo.svg"
   inkscape:export-xdpi="96"
   inkscape:export-ydpi="96"
   sodipodi:docname="logo-dark.svg"
   xmlns:inkscape="http://www.inkscape.org/namespaces/inkscape"
   xmlns:sodipodi="http://sodipodi.sourceforge.net/DTD/sodipodi-0.dtd"
   xmlns="http://www.w3.org/2000/svg"
   xmlns:svg="http://www.w3.org/2000/svg">
  <sodipodi:namedview
     id="namedview4332"
     pagecolor="#ffffff"
     bordercolor="#000000"
     borderopacity="0.25"
     inkscape:showpageshadow="2"
     inkscape:pageopacity="0.0"
     inkscape:pagecheckerboard="0"
     inkscape:deskcolor="#d1d1d1"
     inkscape:document-units="mm"
     showgrid="false" />
  <defs
     id="defs4327">
    <rect
       x="402.40778"
       y="351.98016"
       width="1109.7903"
       height="393.26138"
       id="rect3321" />
  </defs>
  <g
     inkscape:label="Layer 1"
     inkscape:groupmode="layer"
     id="layer1"
     transform="translate(-0.9864403,-4.1009786)">
    <g
       id="g4510"
       transform="translate(0.17258393,0.16114837)">
      <g
         id="g903"
         inkscape:export-filename="logo-light.svg"
         inkscape:export-xdpi="96"
         inkscape:export-ydpi="96">
        <path
           style="fill:#9752ff;fill-opacity:1;stroke-width:0.0151241"
           d="m 6.5900238,11.568101 c -0.072502,-0.01597 -0.1540401,-0.09768 -0.1759461,-0.1763 l -0.017388,-0.06239 -0.3449634,-0.08242 c -0.1897246,-0.04533 -0.3521161,-0.08214 -0.3608693,-0.0818 -0.00876,1.57e-4 -0.03247,0.02373 -0.052756,0.05199 C 5.58495,11.291331 5.4532305,11.343412 5.3402954,11.334947 5.2239815,11.326247 5.141732,11.275017 5.088225,11.177981 5.018871,11.05222 5.036062,10.938804 5.140718,10.831055 l 0.050517,-0.05196 -0.081762,-0.16265 c -0.044984,-0.08946 -0.092939,-0.18691 -0.106599,-0.216563 -0.018376,-0.03993 -0.034183,-0.05391 -0.061055,-0.05391 -0.046697,0 -0.1021533,-0.06381 -0.1021533,-0.117611 0,-0.04856 0.062174,-0.112424 0.1094904,-0.112424 0.024172,0 0.04999,-0.03492 0.112092,-0.1515595 0.044392,-0.08335 0.080702,-0.154139 0.080702,-0.157296 0,-0.00315 0.028058,-0.060382 0.062372,-0.1271662 0.051636,-0.100513 0.060857,-0.1317584 0.053481,-0.1813684 -0.00527,-0.035268 -6.586e-4,-0.073432 0.010538,-0.09273 0.016927,-0.028639 0.00784,-0.058588 -0.071863,-0.2364197 -0.07264,-0.16204 -0.09749,-0.2036275 -0.1216685,-0.2036275 -0.085918,0 -0.1547251,-0.069153 -0.155219,-0.1559906 -3.096e-4,-0.052658 0.00856,-0.070585 0.055983,-0.1134299 l 0.056313,-0.05089 0.00329,-0.2249853 0.00329,-0.2249854 -0.059869,-0.02585 C 4.9095259,8.1398096 4.8392634,8.0436454 4.8397969,7.9796656 c 6.586e-4,-0.087372 0.1019096,-0.2215815 0.167048,-0.2215815 0.014687,0 0.021669,-0.05365 0.026609,-0.2048749 0.00659,-0.1981328 0.00527,-0.2058968 -0.029375,-0.2359966 -0.049858,-0.042993 -0.060791,-0.093765 -0.031285,-0.1452975 0.026938,-0.047101 0.05381,-0.060801 0.1191986,-0.060801 0.041955,0 0.069867,-0.021809 0.2148447,-0.1677996 0.043009,-0.043311 0.043996,-0.047253 0.019627,-0.07868 -0.029836,-0.038473 -0.034315,-0.1571018 -0.00777,-0.2037497 0.00981,-0.017267 0.031285,-0.044737 0.047685,-0.061035 0.029375,-0.029221 0.028387,-0.031737 -0.069604,-0.1821442 -0.054666,-0.083885 -0.1115783,-0.1724478 -0.1264897,-0.1968069 -0.020813,-0.034056 -0.038003,-0.044294 -0.074418,-0.044294 -0.057169,0 -0.1132578,-0.056968 -0.1132578,-0.1150175 0,-0.043877 0.054205,-0.1150159 0.087683,-0.1150159 0.013897,0 0.025489,-0.024697 0.032075,-0.068292 0.00593,-0.037559 0.027926,-0.1648628 0.049463,-0.2828939 l 0.039188,-0.214602 -0.041559,-0.034811 c -0.05974,-0.050035 -0.075007,-0.095863 -0.054734,-0.1639572 0.011658,-0.039096 0.031878,-0.064889 0.063755,-0.081266 L 5.205178,5.0767555 5.2053295,4.9305334 5.205481,4.7843095 5.155623,4.7744195 C 5.1281577,4.7689767 5.0749339,4.7366815 5.0372867,4.702666 4.9277897,4.6037149 4.9091242,4.4811583 4.9834768,4.3494174 5.078866,4.1804496 5.3808999,4.1583496 5.5152536,4.310507 L 5.5588546,4.359894 5.7917259,4.290609 C 5.9198095,4.252505 6.0336073,4.221326 6.044613,4.221326 c 0.011394,0 0.020022,-0.017682 0.020022,-0.041191 0,-0.09759 0.13384,-0.1676464 0.2421515,-0.1267517 0.094447,0.035661 0.1288673,0.1040566 0.1026078,0.2038861 -0.010275,0.039129 0.00132,0.056478 0.1226301,0.1869028 0.4904018,0.5262388 0.5242948,0.5604887 0.5490329,0.5547864 0.014095,-0.00325 0.065599,-0.00649 0.1144433,-0.00719 0.074544,-0.00113 0.098393,0.00537 0.1488567,0.040165 0.071764,0.049484 0.1044385,0.1134324 0.1044385,0.2044136 0,0.067045 -0.048607,0.1638998 -0.082229,0.1638998 -0.013831,0 0.055391,0.1250362 0.3039833,0.5490583 l 0.056379,0.09618 0.097055,-0.00818 c 0.1135213,-0.00958 0.1836323,0.0079 0.2770654,0.069056 0.084364,0.055227 0.1265094,0.1374818 0.1269638,0.2478008 5.533e-4,0.1325609 -0.071514,0.2325206 -0.2191389,0.3039618 l -0.059672,0.028884 0.022854,0.2400462 0.022855,0.2400447 0.047026,0.017587 c 0.091418,0.03422 0.1358752,0.1558009 0.082256,0.2249744 -0.023579,0.030394 -0.017322,0.04155 0.1442397,0.257715 0.1681018,0.2249321 0.1691424,0.2259587 0.2319822,0.2288784 0.03471,0.00169 0.081387,0.013744 0.1037011,0.026954 0.051834,0.030706 0.08931,0.1106684 0.075907,0.1620838 -0.012843,0.049284 -0.077613,0.1135333 -0.12537,0.1243643 -0.03168,0.00719 -0.037542,0.0203 -0.04696,0.1053964 -0.010933,0.098129 -0.092913,0.7110349 -0.1173018,0.877098 l -0.013173,0.089799 0.068814,0.030101 c 0.089857,0.039309 0.159296,0.1167367 0.1901593,0.2120418 0.04999,0.1543717 -0.038464,0.3199756 -0.2044054,0.3826106 -0.085174,0.03215 -0.2225507,0.02874 -0.3011185,-0.0075 l -0.064677,-0.02981 -0.023842,0.03075 c -0.013107,0.01691 -0.085754,0.09345 -0.1614167,0.1700705 -0.2749314,0.278396 -0.2926222,0.2998 -0.273904,0.331404 0.063821,0.10772 -0.049727,0.244721 -0.187294,0.226061 -0.063953,-0.0087 -0.053546,-0.01884 -0.4429805,0.431892 l -0.1142919,0.132281 0.031812,0.05509 c 0.097372,0.168673 -0.091418,0.368034 -0.3041218,0.321158 z M 6.4600434,11.194115 6.4954118,11.150896 6.2792762,10.856255 C 6.1604003,10.694202 6.059663,10.561613 6.0554083,10.561613 c -0.00692,0 -0.3313628,0.23646 -0.387254,0.282251 -0.019232,0.01579 -0.01943,0.02469 -0.00132,0.05867 0.011789,0.02204 0.025555,0.06841 0.030692,0.103056 l 0.00922,0.06298 0.1431925,0.03422 c 0.078752,0.01882 0.2326804,0.05633 0.3420655,0.08336 0.1093784,0.02702 0.2064735,0.0496 0.2157667,0.05016 0.00929,6.27e-4 0.0328,-0.01844 0.052229,-0.04219 z m 0.1667253,-0.08617 c 0.027267,0 0.041823,-0.0098 0.04808,-0.03235 0.00461,-0.0178 0.041955,-0.254367 0.082342,-0.525725 0.073417,-0.493555 0.075057,-0.534584 0.021405,-0.534584 -0.015544,0 -0.2448255,0.165961 -0.4672378,0.338239 -0.078752,0.061 -0.1628262,0.125848 -0.1868201,0.144104 l -0.043601,0.03319 0.2244475,0.302559 c 0.1957116,0.26382 0.2281556,0.300769 0.2533877,0.288562 0.015939,-0.0077 0.046565,-0.014 0.068036,-0.014 z m 0.3308424,-0.168682 c 0.3202253,-0.35497 0.3373958,-0.377458 0.3178213,-0.416282 -0.02213,-0.0439 -0.022327,-0.09884 -4.412e-4,-0.135819 0.014753,-0.02492 0.00329,-0.04168 -0.084871,-0.124852 -0.056049,-0.05283 -0.1336028,-0.127226 -0.1723236,-0.165312 -0.062833,-0.06181 -0.074702,-0.06777 -0.1103928,-0.05551 -0.038266,0.01313 -0.04123,0.02309 -0.068899,0.227397 -0.015873,0.117513 -0.050187,0.348593 -0.076256,0.513514 -0.026016,0.16492 -0.043535,0.308872 -0.038859,0.319888 0.021603,0.05095 0.074043,0.01445 0.2341557,-0.163022 z M 5.7528935,10.741172 c 0.068524,-0.05149 0.1597767,-0.122198 0.2027852,-0.157139 l 0.078192,-0.06353 -0.1031018,-0.144034 -0.1031083,-0.144037 -0.048541,0.0219 c -0.02674,0.01205 -0.070974,0.01979 -0.09836,0.01721 l -0.049792,-0.0047 -0.066653,0.215656 c -0.036686,0.118611 -0.071731,0.229463 -0.077929,0.246335 -0.00896,0.0244 -0.00395,0.03239 0.025621,0.03905 0.020286,0.0046 0.050912,0.02114 0.068102,0.03676 0.017124,0.01561 0.035039,0.02877 0.039715,0.02924 0.00461,6.27e-4 0.064546,-0.04127 0.1330891,-0.09275 z m -0.2776582,-0.07396 c 0.011065,-0.04471 0.043601,-0.154917 0.072304,-0.244892 l 0.052163,-0.163595 -0.044918,-0.021 C 5.420378,10.174915 5.3965027,9.9955515 5.5073633,9.8814545 l 0.045841,-0.04719 -0.058684,-0.1194698 c -0.032273,-0.06571 -0.063953,-0.1187928 -0.070381,-0.1179638 -0.00659,7.837e-4 -0.024237,0.00157 -0.039584,0.00157 -0.019891,4.8e-6 -0.050187,0.043988 -0.1063488,0.1545519 -0.043206,0.085004 -0.1059272,0.2055907 -0.1394383,0.2679772 -0.056576,0.105381 -0.05954,0.116931 -0.041164,0.162778 0.016927,0.04231 0.015741,0.0556 -0.0081,0.09318 -0.017783,0.02803 -0.022525,0.04968 -0.013041,0.06007 0.012514,0.01376 0.105262,0.195037 0.1867146,0.364886 0.021274,0.04433 0.02674,0.04673 0.1071655,0.04673 h 0.084759 z M 6.5372808,10.13869 C 6.7273611,9.9958115 6.7448082,9.9787535 6.7320044,9.9483185 c -0.00771,-0.01838 -0.010736,-0.04157 -0.00672,-0.05153 0.00461,-0.01129 -0.052295,-0.04591 -0.1508523,-0.09185 C 6.4213687,9.7335953 6.4153357,9.7320594 6.3894187,9.7579368 6.3492423,9.7980447 6.2624285,9.8078775 6.1970859,9.779721 6.1346479,9.75282 6.1385338,9.7514895 6.0064392,9.8454045 l -0.098057,0.06972 0.024435,0.05626 c 0.030692,0.070604 0.017388,0.1429425 -0.037015,0.2013465 l -0.040308,0.04328 0.105183,0.144617 0.1051896,0.144619 0.1312713,-0.10481 c 0.072192,-0.05765 0.2252181,-0.175435 0.34005,-0.261754 z m 0.9130832,0.171118 0.073055,-0.0013 0.2374225,-0.249821 0.2374291,-0.2498235 -0.032075,-0.060035 c -0.026477,-0.049634 -0.037542,-0.058219 -0.063887,-0.049556 -0.030297,0.00998 -0.6952153,0.156543 -0.826019,0.182072 -0.045116,0.0088 -0.063228,0.02005 -0.065533,0.04066 -0.00198,0.01567 -0.0081,0.03887 -0.014029,0.05155 -0.015807,0.03366 0.3209103,0.3632545 0.3556859,0.3481805 0.013699,-0.006 0.057762,-0.01133 0.097958,-0.01202 z M 6.0090013,9.8045145 C 6.1029678,9.7402889 6.1243074,9.7190671 6.1102918,9.7038009 6.0998855,9.6925015 6.0956702,9.6547923 6.100083,9.6131426 L 6.1076573,9.5418251 5.946965,9.4306035 C 5.8585836,9.369434 5.6581695,9.2263804 5.5015937,9.1127044 5.2960949,8.9635077 5.2133777,8.9111974 5.2041964,8.9246237 c -0.00698,0.010234 -0.00718,0.025287 -4.742e-4,0.03346 0.00678,0.00816 0.050517,0.1005819 0.097161,0.2053545 0.05269,0.1183729 0.093354,0.190499 0.1073302,0.190499 0.037081,0 0.1154905,0.081158 0.1154905,0.1195044 0,0.019502 -0.013304,0.050303 -0.029572,0.068448 -0.029177,0.032578 -0.028782,0.034538 0.032536,0.1561458 l 0.062043,0.1231551 h 0.1102347 c 0.093097,0 0.1157935,0.005 0.1460312,0.03235 0.019693,0.01779 0.037805,0.03235 0.040308,0.03235 0.00263,0 0.058091,-0.03662 0.1235786,-0.081373 z m 1.3861501,-0.027386 c 0.2001965,-0.044001 0.40094,-0.089579 0.4460956,-0.1012824 l 0.082091,-0.021281 0.00527,-0.076414 0.00527,-0.076414 -0.2386475,-0.087305 C 7.5639708,9.3664148 7.2919113,9.265059 7.0906475,9.1891967 6.7385709,9.0564854 6.7231261,9.0520941 6.6824953,9.0732059 c -0.02325,0.012067 -0.059277,0.021942 -0.080135,0.021942 -0.033919,0 -0.047289,0.021384 -0.1275632,0.2033752 l -0.089659,0.2033767 0.033129,0.040483 c 0.018178,0.022266 0.034051,0.064113 0.035105,0.093001 0.00198,0.051008 0.00659,0.05459 0.1497459,0.1245931 0.1296247,0.06324 0.1525647,0.070085 0.1871098,0.055861 0.061977,-0.025524 0.1407095,-0.019822 0.1731206,0.01254 0.015807,0.01581 0.037476,0.02876 0.048146,0.02876 0.01067,0 0.1831515,-0.036 0.3833483,-0.080003 z M 6.2002934,9.4894722 c 0.032932,-0.012428 0.07677,-0.018783 0.097398,-0.014089 0.022723,0.00516 0.037542,0.00213 0.037542,-0.00763 0,-0.00887 0.035895,-0.097214 0.079832,-0.1963086 L 6.4948981,9.091274 6.4667746,9.0375187 6.4386512,8.9837634 6.2477344,8.9598605 C 5.460212,8.8612627 5.2759145,8.8398515 5.2653699,8.8457411 c -0.0355,0.019819 0.012119,0.064525 0.254481,0.2389162 0.4098712,0.2949395 0.5990623,0.4274407 0.6103117,0.4274407 0.00593,0 0.037212,-0.010171 0.070157,-0.022613 z m 1.780247,-0.058477 c 0.00593,-0.014716 -0.00198,-0.031029 -0.021274,-0.04339 C 7.9420765,9.376713 7.8075713,9.272486 7.6604139,9.1559922 7.0623726,8.6825666 7.083508,8.697173 7.0063431,8.7040499 6.9509524,8.7089896 6.9301858,8.7038932 6.8989536,8.6773089 6.8776799,8.6592341 6.8601604,8.634253 6.8600945,8.6217924 6.8599035,8.6046186 6.7795377,8.5786502 6.5279349,8.5145342 6.3453301,8.4679988 6.1878717,8.4344263 6.1780252,8.4399256 c -0.025489,0.014246 -0.010538,0.035018 0.1714542,0.2378836 l 0.1600797,0.1784298 0.070691,0.00125 c 0.083251,0.00125 0.1366325,0.037442 0.137166,0.092574 3.754e-4,0.034421 0.017849,0.043775 0.2267132,0.1209306 0.1245006,0.045991 0.4017635,0.1507435 0.6161535,0.2327791 0.2143837,0.082037 0.3943935,0.1495416 0.4000248,0.150007 0.00593,6.268e-4 0.014753,-0.00976 0.02022,-0.022735 z m 0.084509,-0.091436 c 0.022262,-0.015824 0.050253,-0.028757 0.062175,-0.028757 0.027597,0 0.027794,0.00169 -0.011263,-0.078056 C 8.0978487,9.1957127 8.0240099,9.0121237 7.9519098,8.8247686 7.822891,8.4894877 7.8200918,8.4840542 7.7740668,8.4798165 7.7483145,8.477452 7.713012,8.4606998 7.6954858,8.4425987 l -0.031812,-0.032912 -0.2647093,0.076919 c -0.2606457,0.075737 -0.2648214,0.077599 -0.2719017,0.1211625 -0.00672,0.041291 0.00593,0.054821 0.1931166,0.2027216 0.4101081,0.3244656 0.5512325,0.437195 0.6214423,0.4963869 0.03965,0.033424 0.074524,0.060917 0.077514,0.061102 0.00329,1.363e-4 0.023645,-0.012616 0.045906,-0.02842 z m 0.1773622,-0.066494 c 0.043733,-0.0079 0.049726,-0.014731 0.049726,-0.056916 0,-0.049732 0.061384,-0.5339905 0.1052094,-0.8297432 L 8.422441,8.216808 8.380618,8.181811 8.338795,8.146813 8.1333423,8.236395 c -0.189685,0.082702 -0.2055316,0.092664 -0.2063418,0.1297696 -4.742e-4,0.022654 -0.017915,0.055564 -0.039847,0.075422 -0.037871,0.034242 -0.038266,0.036753 -0.013963,0.089204 0.021801,0.04695 0.2310404,0.5743758 0.2795154,0.7045342 0.019034,0.051114 0.017981,0.050683 0.08962,0.037741 z M 6.4600829,8.9144634 C 6.4820811,8.8708543 6.4930802,8.8872601 6.2876671,8.6581197 6.162824,8.5188764 6.1311769,8.4913577 6.1047,8.4990605 c -0.076039,0.022129 -0.1183819,0.02227 -0.1648679,6.269e-4 -0.06224,-0.029094 -0.1039843,-0.099099 -0.09182,-0.1540582 0.00527,-0.022629 0.00263,-0.041141 -0.00593,-0.041141 -0.00823,0 -0.1290913,-0.051147 -0.2685296,-0.1136603 L 5.3200229,8.0771696 5.2768168,8.1178986 c -0.023776,0.022403 -0.063821,0.048453 -0.089047,0.057897 l -0.04584,0.017175 V 8.414646 8.6363215 l 0.063623,0.054708 c 0.034973,0.030089 0.063624,0.067649 0.063624,0.08347 0,0.026749 0.030363,0.032532 0.433549,0.082534 0.23845,0.02957 0.4943997,0.062182 0.5687787,0.072466 0.074379,0.010281 0.1430344,0.019437 0.1525647,0.020335 0.00955,7.837e-4 0.025687,-0.014983 0.035961,-0.035281 z M 6.910315,8.2133317 C 6.860918,7.8721378 6.861115,7.8730969 6.829422,7.8730969 6.770343,7.8730969 6.7012594,7.7666411 6.730094,7.720084 6.7420156,7.7007981 6.7268013,7.6807613 6.6554915,7.6214125 6.4685793,7.4660379 6.4459949,7.4509362 6.4266707,7.4684012 c -0.030165,0.027257 -0.1461365,0.019836 -0.1912658,-0.01224 -0.051307,-0.03648 -0.062899,-0.036076 -0.1351835,0.00475 -0.032668,0.018432 -0.1040897,0.054912 -0.1587823,0.081076 -0.054666,0.026167 -0.09944,0.053251 -0.09944,0.06019 0,0.00693 0.036686,0.1451345 0.081532,0.3071039 l 0.081525,0.2944881 h 0.04696 c 0.063097,0 0.139985,0.069227 0.139985,0.1260365 0,0.041456 0.00263,0.042556 0.1869386,0.087096 0.1028185,0.024807 0.2506938,0.063069 0.3286096,0.085021 l 0.1416645,0.039916 0.048409,-0.040862 0.048409,-0.04086 z m 0.4644584,0.2473902 c 0.1414008,-0.040548 0.2616598,-0.077748 0.2672384,-0.082669 0.00527,-0.00492 0.014556,-0.022237 0.019956,-0.038476 0.00771,-0.023195 -0.00461,-0.038864 -0.057893,-0.073041 C 7.5668622,8.2426008 7.4069606,8.139043 7.2487843,8.0364002 7.0039391,7.8775118 6.9566495,7.8520416 6.9305876,7.8650291 c -0.016861,0.00838 -0.03168,0.015264 -0.032997,0.015264 -0.00132,0 0.00395,0.035584 0.011789,0.079074 0.00777,0.043493 0.024962,0.1567115 0.038201,0.2515997 0.036883,0.2646953 0.035434,0.259569 0.075808,0.2621705 0.019627,0.00125 0.046433,0.015327 0.059606,0.03127 0.013107,0.015936 0.026279,0.029213 0.029309,0.029507 0.00329,1.568e-4 0.1211086,-0.032638 0.2625096,-0.073184 z m -1.4702043,-0.2199781 0.03629,-0.034909 -0.081907,-0.284378 c -0.04505,-0.156409 -0.08358,-0.285884 -0.085609,-0.2877254 -0.00198,-0.00188 -0.103767,0.048119 -0.2260612,0.1110148 -0.1676012,0.086198 -0.2210885,0.1205074 -0.217196,0.1393264 0.00263,0.013728 0.00659,0.057315 0.00784,0.096852 l 0.00263,0.071885 0.2467158,0.1104662 c 0.1356907,0.060756 0.2544151,0.1108989 0.2638269,0.1114223 0.00942,6.269e-4 0.033458,-0.014747 0.053415,-0.033954 z m 2.2077563,-0.055793 c 0.1740756,-0.077525 0.2029499,-0.095139 0.1987281,-0.1212315 -0.00263,-0.016799 0.00659,-0.050541 0.020483,-0.074999 L 8.3569599,7.9442531 8.187139,7.7181785 8.0173182,7.4921039 h -0.068399 c -0.052032,0 -0.079141,-0.00911 -0.1131985,-0.03795 L 7.7909343,7.4162068 7.4021328,7.5696883 C 6.9004356,7.7677365 6.9105389,7.7495914 7.1997955,7.9331334 c 0.1151151,0.073041 0.2758927,0.1770539 0.3572861,0.2311368 0.1448522,0.09625 0.1491201,0.097962 0.201626,0.080805 0.045248,-0.014795 0.059408,-0.013885 0.090667,0.00578 0.020352,0.01282 0.042021,0.023639 0.048146,0.024055 0.00593,3.134e-4 0.1027659,-0.040062 0.2147854,-0.08995 z M 5.5348347,7.7123749 c 0.1251921,-0.064675 0.2276155,-0.1218756 0.2276155,-0.1271132 0,-0.00524 -0.032207,-0.12732 -0.071593,-0.2712948 -0.039386,-0.1439748 -0.071593,-0.2743964 -0.071593,-0.289824 0,-0.0224 -0.011065,-0.02805 -0.05493,-0.02805 -0.030231,0 -0.073483,-0.00763 -0.096153,-0.016968 -0.038859,-0.015993 -0.047487,-0.011362 -0.1505887,0.081116 -0.1045112,0.093713 -0.1092599,0.1009283 -0.1067044,0.1620056 0.00198,0.050715 -0.00461,0.069335 -0.033129,0.090121 -0.034117,0.024988 -0.035764,0.035819 -0.035764,0.2348118 v 0.2086143 l 0.046104,0.00914 c 0.025357,0.00503 0.058684,0.02172 0.074056,0.037085 0.015412,0.015374 0.031812,0.027938 0.036554,0.027938 0.00461,0 0.1109987,-0.052916 0.2361842,-0.1175893 z M 7.0400122,7.6765705 C 7.0680039,7.6633591 7.2448589,7.5928047 7.4329959,7.5197603 L 7.7750614,7.3869487 v -0.052563 c 0,-0.063699 0.025686,-0.04932 -0.4295706,-0.2404224 C 7.1529802,7.013157 6.96699,6.9324598 6.9321749,6.9146375 l -0.063294,-0.032404 -0.035895,0.030484 c -0.021537,0.018281 -0.058881,0.031203 -0.093334,0.032283 -0.050978,0.00169 -0.065204,0.011456 -0.1264436,0.087549 -0.037937,0.047162 -0.084528,0.1037288 -0.1034969,0.1257042 -0.033392,0.038688 -0.033656,0.041584 -0.00751,0.09136 0.014819,0.028274 0.023315,0.065287 0.018771,0.082252 -0.00461,0.016968 -0.011987,0.043782 -0.016598,0.059598 -0.00659,0.022445 0.023711,0.054534 0.1379235,0.1462567 0.090706,0.07283 0.1521037,0.1124598 0.1614694,0.1042351 0.028914,-0.025364 0.1046364,-0.013964 0.1405777,0.021154 0.043931,0.042923 0.035632,0.041757 0.095679,0.013462 z M 6.0044765,7.473573 C 6.1576867,7.397921 6.1584573,7.397267 6.1565341,7.3441811 c -0.00132,-0.029348 0.00263,-0.066584 0.00889,-0.08275 0.00896,-0.024513 -0.022262,-0.055003 -0.1879463,-0.1835437 L 5.7787447,6.9237366 5.7229588,6.9563203 c -0.036225,0.021143 -0.052624,0.040155 -0.046829,0.054148 0.00461,0.011864 0.019364,0.06362 0.032075,0.1150175 0.020681,0.083745 0.047421,0.181022 0.1019162,0.3711401 0.00981,0.034118 0.022854,0.059997 0.029111,0.057509 0.00593,-0.00249 0.08061,-0.038741 0.1652961,-0.080563 z M 7.8773267,7.1809453 c 0.016597,-0.005 0.015346,-0.051483 -0.00659,-0.2425021 -0.014753,-0.1299764 -0.030297,-0.2413439 -0.034512,-0.2474811 -0.00395,-0.00615 -0.025423,-0.011174 -0.047092,-0.011174 -0.078087,0 -0.2236308,-0.092943 -0.2476971,-0.1581738 -0.00527,-0.013744 -0.6098176,0.2296761 -0.6354975,0.2557952 -0.00527,0.00561 -0.01449,0.027282 -0.019891,0.048156 -0.00975,0.037346 -0.00263,0.04084 0.4314941,0.2208479 0.2427505,0.1005976 0.4479199,0.1884365 0.455942,0.1951991 0.00836,0.00702 0.029243,-0.00201 0.048804,-0.021101 0.018837,-0.018377 0.04347,-0.036176 0.054798,-0.039575 z m -1.6287821,-0.00696 c 0.02865,-0.016949 0.060199,-0.021184 0.1147858,-0.01539 l 0.075294,0.00799 0.097121,-0.1319778 C 6.6173635,6.9236975 6.630378,6.8976254 6.6173108,6.8712415 6.6045334,6.845412 6.5844452,6.838451 6.5042835,6.8319675 6.3226337,6.8172827 5.8553234,6.7923358 5.8526296,6.79718 5.8513096,6.79983 5.8378766,6.822832 5.8231226,6.848298 l -0.026806,0.0463 0.1448258,0.111847 c 0.079655,0.061518 0.1669032,0.1294484 0.1938872,0.150963 0.058025,0.046269 0.062306,0.046896 0.113541,0.016573 z m 0.3682591,-0.408131 c 0.011328,-0.027062 0.037542,-0.05072 0.0699,-0.063011 0.050583,-0.019211 0.053283,-0.024921 0.1134688,-0.2386875 0.033919,-0.1204541 0.05954,-0.2209027 0.056905,-0.2232207 -0.00263,-0.00231 -0.1311132,-0.021159 -0.2855155,-0.04187 L 6.2908351,6.161413 6.2407793,6.2066285 c -0.040308,0.036406 -0.058947,0.043609 -0.095725,0.03696 -0.05111,-0.00923 -0.080116,0.014983 -0.2681409,0.2238288 l -0.100026,0.1111057 0.031746,0.039852 c 0.017454,0.021921 0.034315,0.062499 0.037476,0.090173 l 0.00593,0.050321 0.3649462,0.023225 c 0.2007237,0.012789 0.368753,0.024096 0.3733964,0.02516 0.00461,0.0011 0.016597,-0.01757 0.026543,-0.041398 z M 7.0691433,6.6679367 C 7.1773824,6.6218761 7.3242171,6.5597288 7.3954478,6.529828 L 7.5249537,6.475465 7.5094757,6.424808 c -0.0085,-0.027859 -0.011987,-0.062759 -0.00771,-0.077547 0.00461,-0.014795 0.00198,-0.026892 -0.00527,-0.026892 -0.00711,0 -0.1359868,-0.01618 -0.2863649,-0.035944 C 7.0597513,6.264656 6.9343615,6.248483 6.9314965,6.248483 c -0.00263,0 -0.010143,0.021025 -0.016136,0.046726 -0.00593,0.025698 -0.034973,0.1267371 -0.064348,0.2245278 L 6.7975315,6.697538 6.8327685,6.72413 c 0.01943,0.014622 0.036225,0.026809 0.037344,0.027074 0.00132,1.566e-4 0.090641,-0.037209 0.1988795,-0.083267 z M 5.7960402,6.4605401 C 6.0572985,6.1846392 6.0493818,6.1952132 6.0257239,6.1540112 6.0097192,6.1260696 6.0081385,6.1051805 6.0197962,6.0748907 6.0348788,6.0358498 6.0265142,6.0243027 5.8577735,5.84997 5.3723773,5.34857 5.3819472,5.3572681 5.3353624,5.3753083 c -0.02325,0.00901 -0.044326,0.017456 -0.046829,0.018782 -0.00263,0.00132 -0.025291,0.1245592 -0.050648,0.2738484 l -0.046038,0.2714328 0.032339,0.031211 c 0.034117,0.032945 0.044787,0.125745 0.017322,0.1505915 -0.00942,0.00854 0.030956,0.083366 0.1086605,0.2012312 0.068043,0.1032023 0.1261999,0.1898925 0.1292427,0.1926445 0.00329,0.00276 0.030956,-1.379e-4 0.062043,-0.00652 0.036225,-0.00738 0.076045,-0.00512 0.1109262,0.00627 0.029968,0.00978 0.05842,0.018545 0.06336,0.019495 0.00461,9.418e-4 0.041099,-0.03225 0.080379,-0.073764 z M 7.5266661,6.2403362 c 0.011263,-0.028199 0.042877,-0.074259 0.070157,-0.1023575 l 0.049661,-0.051088 -0.036488,-0.059385 C 7.5899076,5.9948475 7.508758,5.858141 7.4295908,5.723714 7.3504239,5.5892891 7.2810439,5.4746217 7.2754193,5.4688968 c -0.00593,-0.00572 -0.036159,-0.00661 -0.067813,-0.00195 l -0.057564,0.00845 -0.067812,0.2319963 C 6.9682809,6.0972107 6.9375822,6.2081942 6.9427788,6.2116044 c 0.00263,0.00188 0.1267004,0.019763 0.2754583,0.039923 0.1487579,0.020159 0.2743977,0.037427 0.2792057,0.038374 0.00461,9.419e-4 0.017981,-0.021349 0.029243,-0.049549 z M 6.8908789,6.1514347 c 0.00876,-0.029651 0.05651,-0.1987691 0.1060326,-0.3758135 0.085971,-0.3072671 0.088711,-0.3225836 0.060199,-0.3368995 -0.039123,-0.019658 -0.1103006,-0.084078 -0.1190208,-0.1077055 -0.00527,-0.014302 -0.094717,-0.00169 -0.3855811,0.054051 -0.2082913,0.039971 -0.381076,0.072675 -0.3839674,0.072675 -0.00263,0 -0.012975,0.019979 -0.022393,0.044398 -0.00955,0.024756 -0.031746,0.047853 -0.050187,0.05221 -0.018573,0.00437 -0.029638,0.015955 -0.02516,0.026355 0.00461,0.010192 0.024369,0.1069715 0.044589,0.2150525 l 0.036686,0.1965098 0.051768,0.019532 c 0.029243,0.011033 0.060067,0.037068 0.070901,0.059817 0.010538,0.022156 0.021669,0.043329 0.024765,0.047051 0.00461,0.00547 0.4853171,0.078981 0.5561329,0.085037 0.010604,9.418e-4 0.026477,-0.022615 0.035237,-0.052268 z M 6.0426572,5.7672364 C 6.0194076,5.6560415 5.9954994,5.5782539 5.9833806,5.5746162 5.9409649,5.5618342 5.8896907,5.5006072 5.8890979,5.4619892 5.8884722,5.4233021 5.8806016,5.4194352 5.6782906,5.3585727 5.5626815,5.3237991 5.4597971,5.292599 5.4496476,5.2892411 c -0.010143,-0.00336 -0.02325,0.0076 -0.029177,0.024354 -0.011131,0.031695 -0.01258,0.029987 0.246472,0.2953686 0.056906,0.058274 0.149107,0.1532196 0.2049455,0.2109926 0.2171893,0.2247012 0.2001439,0.2106058 0.2052351,0.1697376 0.00263,-0.019769 -0.013041,-0.1198744 -0.034512,-0.2224576 z M 6.4624869,5.3370413 C 6.6068715,5.3092235 6.7697504,5.2788725 6.824443,5.2695942 6.91621,5.2540142 6.923902,5.2498162 6.924225,5.2150552 6.924416,5.1943392 6.938188,5.1502792 6.954851,5.1171442 6.982447,5.0622412 6.982843,5.0552302 6.959461,5.0380712 6.945498,5.0277292 6.904861,4.9862482 6.869183,4.9459222 6.8334859,4.9055979 6.6946141,4.7561585 6.5605831,4.6138332 6.3477802,4.3878695 6.3119573,4.3559132 6.2780116,4.3617788 c -0.023052,0.00398 -0.042021,0.019165 -0.046565,0.037359 -0.011987,0.047631 -0.1669559,0.9078678 -0.1669559,0.9267844 0,0.00925 0.010472,0.0168 0.023315,0.0168 0.012843,0 0.031153,0.013252 0.040769,0.029445 0.010604,0.017888 0.027992,0.026699 0.044326,0.022445 0.014819,-0.00385 0.1450103,-0.029758 0.2893884,-0.057574 z m -0.5409384,0.034631 c 0,-0.00781 0.02325,-0.023053 0.051702,-0.033894 l 0.051702,-0.019707 0.086024,-0.4707688 0.086023,-0.4707707 -0.05381,-0.038073 c -0.029638,-0.02094 -0.057564,-0.037884 -0.062175,-0.037655 -0.00461,1.881e-4 -0.1173083,0.032578 -0.250516,0.071884 l -0.2421976,0.07147 -4.676e-4,0.060166 c -3.161e-4,0.033092 -0.00724,0.076425 -0.01561,0.096293 -0.026148,0.062219 -0.127774,0.1514346 -0.1923657,0.1689228 l -0.060857,0.01648 -0.00527,0.1411353 c -0.00461,0.1345789 -0.00329,0.1418204 0.030824,0.155853 0.043009,0.017663 0.099255,0.096701 0.099341,0.1396018 0,0.026566 0.028255,0.039772 0.2029103,0.095081 0.2078369,0.06581 0.2744441,0.07891 0.2744441,0.053977 z M 3.372102,11.525372 C 3.1515865,11.488956 2.9871137,11.412036 2.768495,11.243077 2.6549277,11.155305 2.6120378,11.131355 2.5371583,11.113892 2.4865756,11.102109 2.3796472,11.063731 2.2994987,11.02862 1.9224139,10.863453 1.6383802,10.578091 1.4858747,10.21119 1.441549,10.104559 1.4144333,10.063826 1.339725,9.9916525 1.1681851,9.8259465 1.095815,9.714104 1.037882,9.5252098 0.97603678,9.3235555 1.0079144,9.0637388 1.1167199,8.8821777 l 0.048014,-0.080136 -0.045577,-0.043944 C 1.0018353,8.6449447 0.89723843,8.463045 0.84660305,8.2841356 0.77832301,8.042859 0.81959927,7.6937005 0.94453456,7.4561587 0.99854212,7.3534814 1.0084216,7.3208083 1.0062481,7.2517022 1.0029549,7.138755 1.0474782,6.9126757 1.1019929,6.7677652 1.2005831,6.5056793 1.3887797,6.28979 1.6103687,6.1845644 1.688054,6.147674 1.7208537,6.1244448 1.7149326,6.1104997 1.6835819,6.0367531 1.6546681,5.8446285 1.662901,5.7651141 1.6857554,5.5438204 1.8098937,5.2808286 1.9762898,5.1011092 2.1301125,4.9349702 2.439701,4.7463536 2.6087051,4.7158088 c 0.032141,-0.0058 0.05493,-0.025347 0.080583,-0.069033 0.035895,-0.061174 0.097649,-0.1334491 0.2419278,-0.28323 C 3.1009511,4.1873345 3.347759,4.0400651 3.582771,3.9747634 c 0.1799571,-0.050004 0.4211074,-0.046021 0.6041931,0.00999 0.1698406,0.051949 0.336882,0.1521308 0.4611982,0.2765982 l 0.096035,0.096154 v 3.2865897 3.2865917 l -0.1869452,0.165002 c -0.261739,0.23102 -0.4709788,0.35083 -0.7119645,0.407669 -0.1156816,0.02728 -0.3697476,0.0391 -0.473205,0.02202 z M 3.7612528,11.06502 c 0.1304216,-0.0364 0.279792,-0.122722 0.406229,-0.234756 l 0.099433,-0.08811 V 9.4823166 8.2224764 l -0.1630763,-0.00842 c -0.1740887,-0.009 -0.3653216,-0.039933 -0.500986,-0.081081 l -0.083356,-0.025285 -0.026872,0.037254 C 3.3979795,8.2761092 3.1684276,8.4408401 2.9941281,8.5026713 2.7575947,8.5865828 2.6168589,8.5659787 2.5357488,8.4355665 2.4465573,8.2921544 2.5350902,8.1730339 2.7760297,8.1112122 2.8267442,8.0982201 2.8880691,8.0765348 2.9123791,8.0630144 2.977254,8.0269512 3.0897083,7.9370782 3.0888257,7.922033 3.0883581,7.9148862 3.0481883,7.883193 2.9994366,7.8516073 2.8725979,7.7694151 2.6167931,7.5334451 2.5629502,7.4489694 2.4869707,7.329769 2.5047274,7.2166855 2.6122156,7.1349571 2.7228059,7.0508685 2.844593,7.0718657 2.9585621,7.1946664 3.312496,7.5760138 3.6543705,7.7504395 4.1133096,7.7838241 l 0.1536383,0.01119 V 6.1670399 4.5390683 L 4.1675147,4.4755231 C 4.0385421,4.3931067 3.9708087,4.3741789 3.8360203,4.3828939 3.6549698,4.3945885 3.3979861,4.5269049 3.2763242,4.6710378 l -0.042482,0.050326 0.095284,0.032202 C 3.4649291,4.7994619 3.6895017,4.9377985 3.7943818,5.040162 3.9420003,5.1842441 3.9508588,5.3000828 3.8223076,5.4050385 3.6982022,5.5063546 3.6069229,5.4894445 3.416454,5.3298525 3.3368719,5.2631749 3.2530285,5.2096309 3.1725177,5.1740708 3.0615848,5.1250767 3.0375712,5.1198867 2.9217382,5.1198867 c -0.1165444,0 -0.1395239,0.00505 -0.25456,0.055889 -0.1000457,0.044215 -0.1546988,0.081827 -0.261693,0.1800981 -0.2186648,0.2008453 -0.2916145,0.3767958 -0.2387661,0.5758747 0.017585,0.066232 0.023711,0.073762 0.053744,0.065863 0.018639,-0.00491 0.1127836,-0.01282 0.2092068,-0.01757 0.5461153,-0.026967 1.0064441,0.2301368 1.2565979,0.7018354 0.040901,0.077094 0.055654,0.1241371 0.055588,0.177242 C 3.7417047,7.0244862 3.5820069,7.1244992 3.4173497,7.0623296 3.3556362,7.0390161 3.3030974,6.9802047 3.2362664,6.8595233 3.1171797,6.644463 2.9390865,6.4968853 2.7316382,6.4413559 2.4688387,6.3710117 2.003478,6.4570293 1.763849,6.6202575 1.683358,6.6750831 1.6550501,6.7063224 1.6067265,6.7936222 1.5234232,6.9441322 1.4782742,7.1253956 1.4757253,7.3195917 1.4737494,7.4597628 1.4689414,7.4859102 1.4323216,7.5496235 1.325986,7.7345024 1.2743627,7.9811561 1.307439,8.1462725 c 0.045906,0.2291432 0.2296244,0.4375585 0.4814972,0.546224 0.1664092,0.071794 0.21086,0.1223599 0.21086,0.2398677 0,0.084103 -0.031878,0.134059 -0.1207859,0.1892922 -0.044984,0.027928 -0.067437,0.03231 -0.1315348,0.02565 -0.042547,-0.00441 -0.1020018,-0.021193 -0.132167,-0.037277 -0.030165,-0.016086 -0.061318,-0.029246 -0.069215,-0.029246 -0.028914,0 -0.081683,0.1909739 -0.071534,0.2587885 0.02134,0.1426176 0.140255,0.305761 0.3077772,0.4222783 0.085233,0.059285 0.0912,0.06758 0.1087199,0.1511915 0.036291,0.1732383 0.2109588,0.4387843 0.3665796,0.5573643 0.1850879,0.14103 0.3550207,0.218435 0.551292,0.251115 0.099835,0.01663 0.1061644,0.02036 0.2097733,0.123728 0.1197453,0.119478 0.1850418,0.16295 0.3201858,0.213163 0.1192579,0.04431 0.2784353,0.04681 0.4224116,0.0066 z M 3.2430897,10.337793 C 3.212727,10.322371 3.1819031,10.283097 3.1499069,10.218932 3.0644828,10.047763 2.9437166,9.9471185 2.7326986,9.8712335 2.6067358,9.8259355 2.5417028,9.7720985 2.5171228,9.6927633 2.4991422,9.6347921 2.5005912,9.6223956 2.5320078,9.5637099 2.5694838,9.4937936 2.6470636,9.4401966 2.7108321,9.4401966 c 0.033458,0 0.049727,-0.019256 0.1124213,-0.1329871 C 2.8635615,9.2340647 2.9353718,9.1318419 2.982826,9.0800457 3.24471,8.7941961 3.8141802,8.5321572 4.0123286,8.6063223 4.1246314,8.6483592 4.1923319,8.7715061 4.156733,8.8689928 4.1292023,8.9443724 4.0683582,8.9852577 3.8611865,9.0675863 3.7561813,9.1093151 3.6416326,9.1594107 3.6066331,9.1789084 3.4380702,9.2728061 3.2921971,9.4183748 3.2350611,9.5497054 l -0.032009,0.073566 0.040571,0.019628 c 0.022328,0.010798 0.089574,0.067028 0.1494495,0.1249629 0.1207991,0.1168922 0.2214968,0.2795267 0.2214968,0.3577507 0,0.06569 -0.048738,0.147866 -0.113126,0.190652 -0.066726,0.04436 -0.1927543,0.05486 -0.2583933,0.02153 z"
           id="path2560"
           inkscape:label="Logo" />
        <text
           xml:space="preserve"
           transform="matrix(0.04146574,0,0,0.04146574,-9.9747135,-13.955615)"
           id="text3319"
           style="font-style:normal;font-variant:normal;font-weight:bold;font-stretch:normal;font-size:192px;font-family:'Nimbus Mono PS';-inkscape-font-specification:'Nimbus Mono PS Bold';white-space:pre;shape-inside:url(#rect3321);shape-padding:68.2492;display:inline;fill:#050505;fill-opacity:1;stroke:#000000;stroke-width:5;stroke-dasharray:none"
           inkscape:export-filename="logo.svg"
           inkscape:export-xdpi="96"
           inkscape:export-ydpi="96"
           inkscape:label="Text"><tspan
             x="470.65625"
             y="596.69447"
             id="tspan989"><tspan
               style="font-family:'Montserrat Alternates';-inkscape-font-specification:'Montserrat Alternates Bold';stroke:#9752ff"
               id="tspan987">BrainXio</tspan></tspan></text>
      </g>
    </g>
  </g>
</svg>
