<?xml version="1.0" encoding="UTF-8" standalone="no"?>
<!-- Created with Inkscape (http://www.inkscape.org/) -->

<svg
   width="283.93353mm"
   height="48.718605mm"
   viewBox="0 0 283.93353 48.718605"
   version="1.1"
   id="svg2579"
   inkscape:version="1.2.2 (b0a8486541, 2022-12-01)"
   sodipodi:docname="drawing.svg"
   xmlns:inkscape="http://www.inkscape.org/namespaces/inkscape"
   xmlns:sodipodi="http://sodipodi.sourceforge.net/DTD/sodipodi-0.dtd"
   xmlns="http://www.w3.org/2000/svg"
   xmlns:svg="http://www.w3.org/2000/svg">
  <sodipodi:namedview
     id="namedview2581"
     pagecolor="#ffffff"
     bordercolor="#000000"
     borderopacity="0.25"
     inkscape:showpageshadow="2"
     inkscape:pageopacity="0.0"
     inkscape:pagecheckerboard="0"
     inkscape:deskcolor="#d1d1d1"
     inkscape:document-units="mm"
     showgrid="false"
     inkscape:zoom="0.98678268"
     inkscape:cx="315.16565"
     inkscape:cy="533.55213"
     inkscape:window-width="2494"
     inkscape:window-height="1531"
     inkscape:window-x="66"
     inkscape:window-y="32"
     inkscape:window-maximized="1"
     inkscape:current-layer="layer1" />
  <defs
     id="defs2576">
    <rect
       x="402.40778"
       y="351.98016"
       width="1109.7903"
       height="393.26138"
       id="rect3321" />
  </defs>
  <g
     inkscape:label="Layer 1"
     inkscape:groupmode="layer"
     id="layer1"
     transform="translate(-9.1608979,-87.270701)">
    <g
       id="g2649"
       inkscape:export-filename="../../../Code/04_archive/00/.github/assets/logo.svg"
       inkscape:export-xdpi="96"
       inkscape:export-ydpi="96">
      <path
         style="fill:#9752ff;fill-opacity:1;stroke-width:0.0965032"
         d="m 46.016989,135.94494 c -0.462582,-0.10192 -0.982881,-0.62329 -1.122662,-1.12493 l -0.11093,-0.39811 -2.201126,-0.5259 c -1.210617,-0.28924 -2.246797,-0.52412 -2.302632,-0.52197 -0.05584,0.001 -0.207278,0.15143 -0.336531,0.3317 -0.339251,0.47313 -1.179616,0.80545 -1.900238,0.75144 -0.742175,-0.0556 -1.26699,-0.38243 -1.608425,-1.00157 -0.442515,-0.80245 -0.332988,-1.52613 0.335019,-2.21365 l 0.322135,-0.33156 -0.521708,-1.03783 c -0.286951,-0.5708 -0.593016,-1.19263 -0.680159,-1.38184 -0.117349,-0.25482 -0.218334,-0.34401 -0.389452,-0.34401 -0.298187,0 -0.651834,-0.40715 -0.651834,-0.75045 0,-0.30982 0.396893,-0.71735 0.698643,-0.71735 0.154136,0 0.318939,-0.22282 0.715233,-0.96706 0.283224,-0.53187 0.514959,-0.98353 0.514959,-1.00367 0,-0.0201 0.179077,-0.38528 0.397949,-0.81142 0.329394,-0.64135 0.388174,-0.84072 0.341179,-1.15727 -0.0334,-0.22504 -0.0057,-0.46855 0.06717,-0.59169 0.108235,-0.18274 0.05013,-0.37384 -0.458534,-1.50854 -0.46351,-1.03394 -0.62206,-1.2993 -0.776347,-1.2993 -0.548205,0 -0.987269,-0.44125 -0.990406,-0.99534 -0.002,-0.336 0.05454,-0.45039 0.357079,-0.72377 l 0.359331,-0.32472 0.02183,-1.43558 0.02185,-1.43558 -0.382031,-0.16494 c -0.440728,-0.19026 -0.889061,-0.80386 -0.885661,-1.2121 0.0047,-0.5575 0.650243,-1.41386 1.065876,-1.41386 0.09379,0 0.138298,-0.34233 0.169961,-1.30726 0.04148,-1.26424 0.03531,-1.31378 -0.187413,-1.50584 -0.318135,-0.27433 -0.387939,-0.59829 -0.199767,-0.92711 0.171982,-0.30054 0.343364,-0.38796 0.760561,-0.38796 0.267661,0 0.445835,-0.13916 1.370905,-1.07069 0.274434,-0.27636 0.280705,-0.30151 0.125288,-0.50204 -0.190284,-0.24549 -0.219055,-1.00243 -0.04943,-1.30008 0.06281,-0.11018 0.199715,-0.28546 0.304226,-0.38945 0.187402,-0.18645 0.181271,-0.20251 -0.444128,-1.16222 -0.348795,-0.53525 -0.711983,-1.10035 -0.807095,-1.25578 -0.132959,-0.2173 -0.24273,-0.28263 -0.474841,-0.28263 -0.364772,0 -0.722713,-0.3635 -0.722713,-0.7339 0,-0.27997 0.346054,-0.73389 0.559494,-0.73389 0.08853,0 0.16249,-0.157583 0.204517,-0.435757 0.03622,-0.239657 0.178306,-1.051952 0.315772,-1.805081 l 0.249937,-1.369326 -0.265085,-0.222123 c -0.381014,-0.319255 -0.478604,-0.61167 -0.349127,-1.046166 0.07433,-0.249466 0.20341,-0.41404 0.406668,-0.518538 l 0.297782,-0.1531 9.74e-4,-0.93301 9.72e-4,-0.933021 -0.318307,-0.06312 c -0.175079,-0.03473 -0.514848,-0.240783 -0.755049,-0.457827 -0.698695,-0.631384 -0.817764,-1.413389 -0.343191,-2.253997 0.60867,-1.078145 2.53586,-1.21916 3.393137,-0.24828 l 0.278249,0.315123 1.485884,-0.44209 c 0.817308,-0.24313 1.543413,-0.442078 1.613632,-0.442078 0.07284,0 0.127675,-0.112822 0.127675,-0.262832 0,-0.622701 0.854006,-1.069713 1.545128,-0.808773 0.60264,0.227548 0.822263,0.663961 0.654707,1.30095 -0.06567,0.24967 0.0071,0.360372 0.782486,1.192584 3.129113,3.357808 3.345393,3.576349 3.503243,3.539964 0.09011,-0.02072 0.418713,-0.04144 0.730229,-0.04587 0.475659,-0.0072 0.627826,0.03425 0.949818,0.256281 0.457936,0.315746 0.666421,0.723786 0.666421,1.304316 0,0.427801 -0.310063,1.045807 -0.524689,1.045807 -0.08845,0 0.353268,0.797827 1.939652,3.503414 l 0.359843,0.6137 0.619285,-0.0522 c 0.724358,-0.0611 1.171717,0.0504 1.76788,0.44063 0.538309,0.35239 0.807238,0.87724 0.810163,1.58116 0.0035,0.84584 -0.456324,1.48366 -1.398296,1.93951 l -0.380834,0.1843 0.145882,1.53168 0.14589,1.53167 0.299976,0.11222 c 0.583329,0.21835 0.867001,0.99413 0.524887,1.43551 -0.150326,0.19394 -0.110499,0.26512 0.92033,1.64442 1.072625,1.43524 1.079263,1.44179 1.480255,1.46042 0.221535,0.0108 0.519295,0.0877 0.661676,0.17199 0.330917,0.19593 0.569866,0.70615 0.48436,1.03422 -0.08197,0.31447 -0.495246,0.72443 -0.799972,0.79354 -0.202007,0.0459 -0.239337,0.12953 -0.29987,0.67251 -0.06981,0.62614 -0.592824,4.53695 -0.748459,5.59656 l -0.08416,0.57299 0.439063,0.19207 c 0.573361,0.25082 1.016433,0.74487 1.213382,1.35299 0.319005,0.98501 -0.245511,2.04169 -1.30427,2.44135 -0.543475,0.20515 -1.42004,0.18336 -1.921355,-0.0478 l -0.412615,-0.19022 -0.152118,0.19624 c -0.08366,0.10791 -0.547147,0.59627 -1.029966,1.08518 -1.754244,1.77638 -1.867121,1.91295 -1.747699,2.11461 0.407086,0.68734 -0.317179,1.56151 -1.195082,1.44244 -0.408135,-0.0553 -0.341629,-0.12018 -2.826567,2.75581 l -0.729272,0.84405 0.202902,0.35149 c 0.621307,1.07626 -0.583299,2.34834 -1.940541,2.04923 z m -0.829347,-2.38632 0.225624,-0.27578 -1.379128,-1.88004 c -0.758518,-1.03402 -1.401297,-1.88004 -1.428414,-1.88004 -0.04423,0 -2.114358,1.5088 -2.471,1.80098 -0.12289,0.10073 -0.124149,0.15756 -0.0084,0.37437 0.07513,0.14062 0.16318,0.43652 0.195665,0.65758 l 0.05905,0.40188 0.913658,0.21833 c 0.502513,0.12008 1.484695,0.35943 2.182629,0.53187 0.697935,0.17245 1.317487,0.31649 1.376783,0.32008 0.05929,0.004 0.209329,-0.11761 0.333424,-0.26923 z m 1.063843,-0.54986 c 0.174103,0 0.266718,-0.0624 0.306575,-0.20641 0.03143,-0.11354 0.267834,-1.62306 0.525384,-3.35453 0.468455,-3.14926 0.47894,-3.41106 0.136724,-3.41106 -0.09936,0 -1.562204,1.05896 -2.98135,2.15823 -0.502512,0.38924 -1.038941,0.80301 -1.192061,0.91949 l -0.27839,0.21177 1.43216,1.93056 c 1.248798,1.68337 1.455811,1.91914 1.616829,1.84125 0.101564,-0.0491 0.296929,-0.0893 0.434129,-0.0893 z m 2.110991,-1.07632 c 2.043313,-2.26498 2.152872,-2.40847 2.027967,-2.6562 -0.141243,-0.28012 -0.142258,-0.63068 -0.0028,-0.86663 0.0942,-0.15904 0.02152,-0.26595 -0.541556,-0.79665 -0.357688,-0.33713 -0.852504,-0.8118 -1.099578,-1.05482 -0.400975,-0.39441 -0.476636,-0.43245 -0.70439,-0.35421 -0.244006,0.0838 -0.263245,0.14735 -0.439623,1.45097 -0.101455,0.74982 -0.32041,2.22429 -0.486575,3.27661 -0.166151,1.05232 -0.277679,1.97084 -0.247824,2.04114 0.138044,0.32508 0.472475,0.0922 1.494107,-1.04021 z m -7.687028,-1.26395 c 0.437256,-0.32853 1.01952,-0.77971 1.293934,-1.00266 l 0.498928,-0.40536 -0.657874,-0.91905 -0.657885,-0.91907 -0.309923,0.13972 c -0.17046,0.0769 -0.452871,0.1263 -0.627593,0.10983 l -0.317659,-0.0298 -0.425328,1.37605 c -0.233927,0.75683 -0.457683,1.46415 -0.497223,1.57181 -0.05718,0.1557 -0.02369,0.2067 0.163635,0.24918 0.12953,0.0293 0.325081,0.13492 0.434545,0.23453 0.109469,0.0996 0.223431,0.18358 0.253238,0.18659 0.02982,0.004 0.411958,-0.26334 0.849205,-0.59183 z m -1.771666,-0.4719 c 0.07065,-0.28532 0.27827,-0.98849 0.461368,-1.5626 l 0.332896,-1.04386 -0.286777,-0.13399 c -0.857621,-0.40077 -1.009958,-1.54525 -0.302574,-2.27328 l 0.292523,-0.30108 -0.374326,-0.76231 c -0.205888,-0.41928 -0.407969,-0.75799 -0.449083,-0.7527 -0.04111,0.005 -0.154683,0.01 -0.252392,0.01 -0.127105,3e-5 -0.320228,0.28068 -0.678605,0.98616 -0.27552,0.54239 -0.675906,1.31183 -0.889732,1.7099 -0.36119,0.67241 -0.379838,0.74611 -0.26278,1.03865 0.108031,0.26996 0.100666,0.35478 -0.0516,0.59453 -0.113589,0.17885 -0.143657,0.317 -0.08342,0.38327 0.07978,0.0878 0.671681,1.24449 1.19139,2.32826 0.13567,0.28289 0.170652,0.29815 0.683814,0.29815 h 0.540825 z m 6.776698,-3.37238 c 1.212863,-0.91167 1.324185,-1.02051 1.242475,-1.21471 -0.04936,-0.11726 -0.06859,-0.26527 -0.04272,-0.32878 0.02932,-0.072 -0.333605,-0.29291 -0.962541,-0.58609 -0.976648,-0.45525 -1.015155,-0.46505 -1.180517,-0.29993 -0.25629,0.25592 -0.810324,0.31866 -1.227255,0.139 -0.398356,-0.17165 -0.373718,-0.18014 -1.216487,0.41911 l -0.625644,0.44488 0.156065,0.35901 c 0.195817,0.45049 0.111037,0.91208 -0.235958,1.28474 l -0.257175,0.27618 0.671174,0.92277 0.671184,0.92278 0.837592,-0.66877 c 0.460666,-0.36782 1.437082,-1.11941 2.169807,-1.67019 z m 5.826147,1.09187 0.466141,-0.008 1.514979,-1.59405 1.514974,-1.59406 -0.204555,-0.38307 c -0.169118,-0.3167 -0.239725,-0.37148 -0.407584,-0.31621 -0.193564,0.0637 -4.436049,0.99887 -5.270644,1.16176 -0.28772,0.0562 -0.403479,0.12795 -0.418354,0.25944 -0.01126,0.10001 -0.05162,0.24802 -0.08959,0.32893 -0.100762,0.21476 2.047669,2.31784 2.269557,2.22166 0.08742,-0.038 0.368689,-0.0723 0.625062,-0.0767 z m -9.197009,-3.22418 c 0.599583,-0.40981 0.735768,-0.54522 0.646323,-0.64263 -0.06621,-0.0721 -0.09322,-0.31271 -0.06496,-0.57847 l 0.04839,-0.45506 -1.025319,-0.70968 c -0.563929,-0.39031 -1.842736,-1.3031 -2.841803,-2.02844 -1.311252,-0.95199 -1.839051,-1.28577 -1.897648,-1.2001 -0.04464,0.0653 -0.04584,0.16135 -0.0026,0.2135 0.04319,0.0521 0.322156,0.64179 0.619927,1.31032 0.336421,0.75531 0.595716,1.21553 0.68486,1.21553 0.236473,0 0.736947,0.51785 0.736947,0.76253 0,0.12444 -0.08488,0.32097 -0.188631,0.43675 -0.186264,0.20787 -0.183656,0.22038 0.207472,0.99633 l 0.396102,0.78582 h 0.703365 c 0.594071,0 0.738865,0.0321 0.93179,0.20641 0.125632,0.11354 0.241408,0.20641 0.257295,0.20641 0.01588,0 0.370722,-0.23365 0.788538,-0.51922 z m 8.844713,-0.17474 c 1.277427,-0.28076 2.558315,-0.57158 2.846423,-0.64626 l 0.523841,-0.13579 0.03451,-0.48758 0.03453,-0.48758 -1.522765,-0.55707 c -0.837519,-0.30639 -2.573473,-0.95312 -3.857672,-1.43718 -2.246523,-0.8468 -2.34511,-0.87482 -2.604364,-0.74011 -0.148204,0.077 -0.378286,0.14001 -0.511292,0.14001 -0.216396,0 -0.301985,0.13645 -0.813949,1.29769 l -0.572113,1.2977 0.21133,0.25831 c 0.116235,0.14207 0.217126,0.40909 0.224212,0.59342 0.01246,0.32547 0.04,0.34833 0.955524,0.795 0.827107,0.40352 0.973445,0.4472 1.193908,0.35644 0.395533,-0.16286 0.897802,-0.12648 1.104606,0.08 0.101061,0.10085 0.239305,0.18348 0.30722,0.18348 0.06791,0 1.168649,-0.22972 2.446068,-0.51048 z m -7.624116,-1.83547 c 0.210162,-0.0793 0.489842,-0.11985 0.6215,-0.0899 0.145009,0.0329 0.239381,0.0136 0.239381,-0.0487 0,-0.0566 0.229226,-0.6203 0.509384,-1.2526 l 0.509395,-1.14961 -0.179463,-0.343 -0.179453,-0.343 -1.218211,-0.15252 c -5.024961,-0.62913 -6.200941,-0.76575 -6.268217,-0.72817 -0.226435,0.12646 0.07742,0.41172 1.623785,1.52447 2.615307,1.88194 3.822474,2.7274 3.894267,2.7274 0.03603,0 0.237459,-0.0649 0.447632,-0.14429 z m 11.359366,-0.37313 c 0.03987,-0.0939 -0.01126,-0.19799 -0.135788,-0.27686 -0.10984,-0.0695 -0.96794,-0.73455 -1.90691,-1.47787 -3.815984,-3.02082 -3.68111,-2.92762 -4.17347,-2.88374 -0.353605,0.0315 -0.485942,-0.001 -0.685242,-0.17063 -0.135852,-0.11533 -0.24743,-0.27473 -0.247948,-0.35424 -0.0012,-0.10958 -0.514005,-0.27528 -2.119428,-0.68439 -1.165155,-0.29693 -2.169876,-0.51115 -2.232705,-0.47606 -0.162763,0.0909 -0.06724,0.22344 1.094034,1.51788 l 1.021401,1.13852 0.451092,0.008 c 0.531183,0.008 0.871794,0.23891 0.875205,0.59069 0.0024,0.21963 0.114008,0.27932 1.446626,0.77163 0.794377,0.29346 2.563554,0.96186 3.931504,1.48531 1.367952,0.52346 2.516554,0.95419 2.552459,0.95716 0.03592,0.004 0.09404,-0.0623 0.129172,-0.14507 z m 0.539231,-0.58343 c 0.141964,-0.10097 0.320484,-0.18349 0.3967,-0.18349 0.175932,0 0.177536,0.0108 -0.07173,-0.49806 -0.115673,-0.2363 -0.586711,-1.40774 -1.04675,-2.60321 -0.823257,-2.13935 -0.841134,-2.17402 -1.134794,-2.20106 -0.164092,-0.0151 -0.389716,-0.12198 -0.501385,-0.23748 l -0.203038,-0.21 -1.68907,0.4908 c -1.66311,0.48326 -1.689769,0.49514 -1.734924,0.77311 -0.04278,0.26347 0.03945,0.3498 1.232239,1.29352 2.616791,2.07034 3.517282,2.78964 3.965249,3.16733 0.252944,0.21327 0.475529,0.3887 0.494637,0.38988 0.0191,8.7e-4 0.150906,-0.0805 0.292865,-0.18134 z m 1.131709,-0.42428 c 0.279172,-0.0504 0.317242,-0.094 0.317242,-0.36317 0,-0.31733 0.391789,-3.40727 0.671297,-5.2944 l 0.160286,-1.08217 -0.266636,-0.22331 -0.266644,-0.22331 -1.310969,0.5716 c -1.210316,0.5277 -1.311417,0.59127 -1.316616,0.82803 -0.003,0.14455 -0.114164,0.35454 -0.254413,0.48125 -0.241774,0.21849 -0.244271,0.23451 -0.08893,0.56919 0.13905,0.29958 1.474217,3.66496 1.783513,4.49547 0.121457,0.32615 0.114906,0.3234 0.57187,0.24082 z m -11.372634,-2.28816 c 0.140297,-0.27826 0.210698,-0.17358 -1.100147,-1.63567 -0.796579,-0.88848 -0.998548,-1.06407 -1.167453,-1.01492 -0.485204,0.1412 -0.755392,0.1421 -1.051986,0.004 -0.39728,-0.18564 -0.663531,-0.63233 -0.58591,-0.98301 0.03194,-0.14439 0.01502,-0.26251 -0.03764,-0.26251 -0.05264,0 -0.823703,-0.32636 -1.713445,-0.72524 l -1.617714,-0.72523 -0.275528,0.25988 c -0.151545,0.14295 -0.407219,0.30917 -0.568165,0.36943 l -0.292625,0.10959 v 1.41446 1.41446 l 0.406071,0.34908 c 0.223339,0.19199 0.40607,0.43165 0.40607,0.5326 0,0.17068 0.193859,0.20758 2.766356,0.52663 1.521496,0.18868 3.154661,0.39677 3.629256,0.46239 0.474595,0.0656 0.912665,0.12402 0.973494,0.12975 0.06083,0.005 0.164052,-0.0956 0.229369,-0.22512 z m 2.872805,-4.47376 c -0.315201,-2.17708 -0.313738,-2.17096 -0.516153,-2.17096 -0.376814,0 -0.817756,-0.67927 -0.633789,-0.97634 0.07621,-0.12306 -0.02044,-0.25091 -0.476016,-0.6296 -1.192647,-0.99141 -1.336742,-1.08777 -1.460055,-0.97633 -0.192478,0.17392 -0.93245,0.12657 -1.220394,-0.0781 -0.327466,-0.23277 -0.401199,-0.23019 -0.862596,0.0303 -0.208273,0.11761 -0.664189,0.35038 -1.013155,0.51733 -0.348967,0.16697 -0.634486,0.33978 -0.634486,0.38406 0,0.0442 0.2341,0.92607 0.520217,1.95956 l 0.520217,1.87906 h 0.299731 c 0.402619,0 0.893223,0.44172 0.893223,0.80421 0,0.26452 0.01508,0.27154 1.192832,0.55574 0.656057,0.15829 1.599592,0.40243 2.096756,0.5425 l 0.903934,0.25469 0.308856,-0.26073 0.308858,-0.26072 z m 2.963634,1.57854 c 0.902249,-0.25873 1.66958,-0.49609 1.705183,-0.52749 0.0356,-0.0314 0.09294,-0.14189 0.127408,-0.24551 0.04925,-0.148 -0.02997,-0.24798 -0.36928,-0.46606 -0.23758,-0.15272 -1.257739,-0.8135 -2.267008,-1.46844 -1.562317,-1.01383 -1.864069,-1.17635 -2.030356,-1.09348 -0.10742,0.0535 -0.202129,0.0974 -0.210453,0.0974 -0.0084,0 0.02545,0.22705 0.07507,0.50455 0.04961,0.27752 0.159269,0.99994 0.243674,1.6054 0.235459,1.68896 0.225996,1.65625 0.483708,1.67285 0.125328,0.008 0.296392,0.0978 0.380144,0.19953 0.08375,0.10168 0.16784,0.1864 0.186864,0.18828 0.01903,10e-4 0.772784,-0.20826 1.675039,-0.46697 z m -9.38106,-1.40363 0.231572,-0.22275 -0.522643,-1.81455 c -0.287447,-0.99801 -0.533272,-1.82416 -0.546257,-1.83591 -0.01298,-0.012 -0.662077,0.30704 -1.442423,0.70836 -1.069418,0.55001 -1.41069,0.76893 -1.385868,0.88901 0.01812,0.0876 0.04064,0.36571 0.05006,0.61799 l 0.01713,0.45868 1.574224,0.70486 c 0.865823,0.38767 1.623369,0.70762 1.683436,0.71096 0.06006,0.004 0.2134,-0.0941 0.340775,-0.21665 z m 14.087218,-0.356 c 1.110732,-0.49467 1.294969,-0.60706 1.268014,-0.77355 -0.01735,-0.10719 0.04152,-0.32249 0.130842,-0.47855 l 0.162366,-0.28374 -1.083579,-1.44253 -1.08358,-1.44253 h -0.436452 c -0.331831,0 -0.504971,-0.0581 -0.722299,-0.24215 l -0.285833,-0.24213 -2.480858,0.97933 c -3.201206,1.2637 -3.13675,1.14792 -1.291058,2.31906 0.734517,0.46606 1.760405,1.12974 2.279747,1.47483 0.92426,0.61415 0.951505,0.62507 1.286535,0.5156 0.288694,-0.0944 0.379268,-0.0886 0.578508,0.0369 0.129926,0.0818 0.268147,0.15084 0.307162,0.15349 0.03901,0.002 0.655735,-0.25563 1.370489,-0.57395 z m -16.446385,-3.0154 c 0.798801,-0.41268 1.45236,-0.77766 1.45236,-0.81108 0,-0.0334 -0.205573,-0.8124 -0.45683,-1.73107 -0.251255,-0.91867 -0.456828,-1.75086 -0.456828,-1.8493 0,-0.14293 -0.07062,-0.17898 -0.35054,-0.17898 -0.192794,0 -0.46887,-0.0487 -0.613503,-0.10827 -0.247905,-0.10205 -0.302917,-0.0725 -0.960884,0.51758 -0.666839,0.59796 -0.697151,0.644 -0.680849,1.03372 0.01353,0.3236 -0.03012,0.44241 -0.211338,0.57504 -0.217889,0.15944 -0.228416,0.22855 -0.228416,1.49828 v 1.33112 l 0.294028,0.0583 c 0.161706,0.0321 0.374365,0.13859 0.472563,0.23663 0.09819,0.0981 0.203136,0.17827 0.233206,0.17827 0.03007,0 0.708239,-0.33764 1.507031,-0.75031 z m 9.604187,-0.22846 c 0.178691,-0.0843 1.307082,-0.53449 2.507524,-1.00057 l 2.182633,-0.84744 v -0.33539 c 0,-0.40645 0.163927,-0.3147 -2.740976,-1.53408 -1.228365,-0.51561 -2.415137,-1.03052 -2.63727,-1.14424 l -0.403875,-0.20676 -0.229116,0.19451 c -0.137374,0.11665 -0.375849,0.1991 -0.595563,0.20599 -0.325193,0.0108 -0.416031,0.0731 -0.806804,0.55863 -0.242187,0.30093 -0.539362,0.66187 -0.66038,0.80209 -0.213065,0.24686 -0.214578,0.26534 -0.04779,0.58295 0.09474,0.18041 0.148683,0.41658 0.119881,0.52483 -0.02882,0.10827 -0.07657,0.27936 -0.106139,0.38028 -0.04197,0.14322 0.151132,0.34797 0.880087,0.93323 0.578771,0.46471 0.97052,0.71758 1.030293,0.6651 0.184316,-0.16184 0.667659,-0.0891 0.896978,0.13498 0.28027,0.27388 0.227463,0.26644 0.610519,0.0859 z m -6.607508,-1.29528 c 0.977593,-0.48272 0.982487,-0.48689 0.970222,-0.82562 -0.0067,-0.18726 0.01865,-0.42486 0.05652,-0.52801 0.05739,-0.15641 -0.14182,-0.35096 -1.199238,-1.17115 l -1.268077,-0.9836 -0.35587,0.20791 c -0.230911,0.13491 -0.33579,0.25622 -0.298695,0.34551 0.03144,0.0757 0.123445,0.40594 0.204446,0.7339 0.131981,0.53436 0.302431,1.15506 0.650301,2.36816 0.06242,0.2177 0.145984,0.38283 0.185677,0.36695 0.03969,-0.0159 0.514318,-0.2472 1.054717,-0.51405 z m 11.95021,-1.86719 c 0.105815,-0.0319 0.09807,-0.3285 -0.04042,-1.54735 -0.09425,-0.82935 -0.193273,-1.53996 -0.220074,-1.57912 -0.02678,-0.0392 -0.162038,-0.0713 -0.300562,-0.0713 -0.498238,0 -1.42693,-0.59305 -1.580468,-1.00927 -0.03234,-0.0877 -3.891117,1.46551 -4.054987,1.63217 -0.03522,0.0358 -0.09238,0.17408 -0.127025,0.30727 -0.06199,0.2383 -0.01844,0.26059 2.753252,1.40918 1.548924,0.64189 2.858097,1.20237 2.909261,1.24552 0.05316,0.0448 0.186699,-0.0128 0.311578,-0.13464 0.120186,-0.11726 0.277446,-0.23083 0.349454,-0.25252 z m -10.39289,-0.0444 c 0.18268,-0.10815 0.384173,-0.13517 0.732429,-0.0982 l 0.480432,0.051 0.619694,-0.84212 c 0.520786,-0.70772 0.603856,-0.87408 0.520462,-1.04243 -0.08165,-0.16481 -0.209482,-0.20923 -0.721212,-0.2506 -1.159058,-0.0937 -4.140835,-0.25288 -4.158021,-0.22197 -0.0092,0.0169 -0.09413,0.16368 -0.188295,0.32617 l -0.17122,0.29543 0.924104,0.71367 c 0.50826,0.39253 1.064972,0.82598 1.237155,0.96326 0.370286,0.29523 0.397717,0.29923 0.724472,0.10575 z m 2.349767,-2.60419 c 0.07214,-0.17268 0.239572,-0.32363 0.446018,-0.40206 0.322603,-0.12259 0.33993,-0.15903 0.724044,-1.52302 0.216447,-0.76859 0.3798,-1.40953 0.363018,-1.42432 -0.0168,-0.0147 -0.836607,-0.13501 -1.821806,-0.26716 l -1.791279,-0.24025 -0.319283,0.28851 c -0.257062,0.2323 -0.376093,0.27826 -0.610821,0.23583 -0.326125,-0.0589 -0.511213,0.0956 -1.710937,1.4282 l -0.638233,0.70894 0.202701,0.25429 c 0.111493,0.13987 0.219188,0.39879 0.239349,0.57537 l 0.03665,0.32109 2.328661,0.14819 c 1.280766,0.0816 2.352913,0.15375 2.382551,0.16054 0.02962,0.007 0.105839,-0.11211 0.169369,-0.26415 z m 2.886299,-0.6248 c 0.690635,-0.2939 1.627573,-0.69045 2.082075,-0.88124 l 0.826354,-0.34688 -0.09875,-0.32323 c -0.05432,-0.17776 -0.07641,-0.40045 -0.0491,-0.49481 0.02732,-0.0944 0.01246,-0.17159 -0.03292,-0.17159 -0.04542,0 -0.867682,-0.10324 -1.827238,-0.22935 -0.959566,-0.12614 -1.759625,-0.22934 -1.777921,-0.22934 -0.0183,0 -0.06457,0.13416 -0.102833,0.29815 -0.03825,0.16397 -0.223073,0.80868 -0.410701,1.43266 l -0.341148,1.13451 0.224983,0.16968 c 0.123751,0.0933 0.230953,0.17106 0.238251,0.17275 0.0073,0.001 0.578326,-0.23742 1.26897,-0.53131 z m -8.123402,-1.32335 c 1.667064,-1.76046 1.616518,-1.69299 1.465581,-1.95589 -0.102354,-0.17829 -0.112331,-0.31158 -0.03778,-0.50485 0.09609,-0.24911 0.04302,-0.32279 -1.033845,-1.435167 -3.097212,-3.199318 -3.036128,-3.143817 -3.333362,-3.028707 -0.148327,0.05749 -0.282787,0.111384 -0.298826,0.11984 -0.01604,0.0084 -0.161426,0.794784 -0.323092,1.747364 l -0.293943,1.73195 0.206345,0.19915 c 0.217806,0.21021 0.285821,0.80235 0.110378,0.96089 -0.06029,0.0545 0.197553,0.53194 0.693366,1.28401 0.43413,0.65851 0.805227,1.21166 0.824668,1.22922 0.01944,0.0176 0.197522,-8.8e-4 0.395746,-0.0416 0.230912,-0.0471 0.485214,-0.0327 0.707771,0.04 0.191055,0.0624 0.372914,0.11833 0.404141,0.12439 0.03124,0.006 0.262007,-0.20578 0.512846,-0.47067 z m 11.042754,-1.40507 c 0.07201,-0.17993 0.273449,-0.47383 0.447644,-0.65312 l 0.316723,-0.32598 -0.232696,-0.37892 c -0.127979,-0.20839 -0.645998,-1.080681 -1.151139,-1.938428 -0.505142,-0.857735 -0.947823,-1.589401 -0.983729,-1.62593 -0.03592,-0.03653 -0.230615,-0.04216 -0.432696,-0.01246 l -0.367413,0.0539 -0.432721,1.480315 c -0.727096,2.487353 -0.922947,3.195513 -0.889782,3.217273 0.0175,0.012 0.808425,0.1261 1.757618,0.25474 0.949187,0.12863 1.750882,0.23881 1.781543,0.24486 0.03066,0.006 0.114654,-0.13622 0.186648,-0.31616 z m -4.056806,-0.56726 c 0.05602,-0.1892 0.360469,-1.2683 0.676544,-2.39798 0.54857,-1.9606 0.566041,-2.058331 0.384275,-2.149678 -0.249582,-0.125434 -0.703791,-0.53648 -0.75941,-0.687244 -0.03366,-0.09126 -0.604407,-0.01078 -2.460306,0.344885 -1.329057,0.255047 -2.431568,0.46372 -2.450015,0.46372 -0.01844,0 -0.08271,0.127482 -0.142824,0.283289 -0.06093,0.157963 -0.20261,0.305338 -0.320227,0.333136 -0.118344,0.02791 -0.188885,0.101803 -0.160693,0.168167 0.02763,0.06503 0.155668,0.682561 0.284513,1.372201 l 0.234263,1.253884 0.330114,0.12463 c 0.186427,0.0704 0.383332,0.23652 0.452403,0.38168 0.06726,0.14137 0.138359,0.27647 0.157992,0.30022 0.02882,0.0349 3.096684,0.50396 3.548543,0.5426 0.06764,0.006 0.16881,-0.1443 0.224828,-0.33351 z m -5.412323,-2.451481 c -0.148326,-0.709509 -0.301008,-1.205854 -0.37811,-1.229065 -0.270789,-0.08156 -0.597829,-0.472235 -0.601594,-0.718647 -0.0038,-0.246855 -0.05408,-0.271527 -1.345109,-0.659877 -0.737659,-0.221883 -1.394174,-0.420963 -1.458922,-0.442389 -0.06476,-0.02144 -0.148437,0.04851 -0.185979,0.155399 -0.07104,0.202242 -0.08015,0.191343 1.572681,1.884679 0.362926,0.371833 0.951382,0.977659 1.3077,1.346295 1.385826,1.433766 1.277081,1.343826 1.309566,1.083056 0.0157,-0.12614 -0.08341,-0.764891 -0.220233,-1.419451 z m 2.678848,-2.744976 c 0.921271,-0.177497 1.960562,-0.371162 2.309527,-0.430364 0.585553,-0.09941 0.634659,-0.1262 0.636708,-0.348 0.0012,-0.132188 0.08914,-0.413321 0.195362,-0.624749 0.17601,-0.350323 0.178773,-0.395056 0.03122,-0.504549 -0.08905,-0.06599 -0.348267,-0.330669 -0.576044,-0.58798 -0.227784,-0.257298 -1.113882,-1.210836 -1.969104,-2.118981 -1.357831,-1.441822 -1.58642,-1.645728 -1.803027,-1.608301 -0.147282,0.02539 -0.268057,0.122284 -0.297274,0.238376 -0.07648,0.303925 -1.065306,5.792895 -1.065306,5.913597 0,0.05905 0.06692,0.107193 0.148703,0.107193 0.08179,0 0.198772,0.08456 0.259976,0.187881 0.06761,0.11414 0.17855,0.170359 0.282747,0.14322 0.09432,-0.02455 0.925241,-0.189882 1.846514,-0.367367 z m -3.451598,0.220973 c 0,-0.04982 0.148468,-0.147099 0.329932,-0.216266 l 0.329932,-0.125745 0.548895,-3.003868 0.548896,-3.003879 -0.343506,-0.242939 c -0.188933,-0.133614 -0.367411,-0.241729 -0.396629,-0.240268 -0.02921,0.0012 -0.74854,0.207871 -1.598506,0.458678 l -1.545404,0.456031 -0.0028,0.383906 c -0.0016,0.211152 -0.04639,0.48765 -0.09973,0.614425 -0.167036,0.397009 -0.815307,0.966269 -1.22745,1.077857 l -0.388486,0.105157 -0.03182,0.900552 c -0.03034,0.858717 -0.02119,0.904923 0.196834,0.994462 0.274482,0.112703 0.633338,0.617024 0.633865,0.890767 0,0.169509 0.180163,0.253778 1.294736,0.606688 1.326176,0.419921 1.751179,0.503507 1.751179,0.344418 z m -16.26747,39.265334 c -1.407017,-0.23236 -2.456486,-0.72317 -3.85144,-1.80126 -0.72465,-0.56005 -0.998313,-0.71287 -1.476136,-0.8243 -0.322612,-0.0752 -1.005014,-0.32007 -1.516452,-0.5441 -2.406078,-1.05389 -4.218414,-2.87472 -5.191521,-5.21583 -0.282818,-0.68039 -0.455846,-0.9403 -0.932571,-1.40082 -1.094534,-1.05733 -1.556338,-1.77097 -1.925953,-2.97626 -0.394577,-1.28671 -0.19133,-2.94454 0.50304,-4.10304 l 0.306471,-0.51133 -0.290706,-0.2804 c -0.748569,-0.722 -1.4159956,-1.88266 -1.7390654,-3.02424 -0.4357052,-1.53953 -0.1721837,-3.76743 0.6248717,-5.28313 0.3445177,-0.65516 0.4074507,-0.86364 0.3937957,-1.30459 -0.02229,-0.72069 0.263091,-2.16325 0.610932,-3.08789 0.629107,-1.67231 1.829919,-3.04985 3.243823,-3.72127 0.495723,-0.23539 0.70499,-0.38361 0.667217,-0.47259 -0.199825,-0.47056 -0.384599,-1.696463 -0.332167,-2.203826 0.145912,-1.412024 0.93791,-3.090114 1.999655,-4.236862 0.981495,-1.060095 2.956904,-2.263614 4.035286,-2.458513 0.204996,-0.03701 0.350553,-0.161736 0.514196,-0.440485 0.229146,-0.390338 0.623065,-0.851507 1.543668,-1.807224 1.083041,-1.124364 2.657866,-2.064056 4.157432,-2.480731 1.148266,-0.319064 2.686999,-0.293649 3.855224,0.06372 1.083721,0.331471 2.149565,0.970712 2.942794,1.76491 l 0.61277,0.613538 v 20.970973 20.97098 l -1.192833,1.05284 c -1.670095,1.47408 -3.005207,2.23857 -4.542913,2.60125 -0.738117,0.17408 -2.35924,0.24952 -3.019418,0.14051 z m 2.48308,-2.9374 c 0.832212,-0.23228 1.785299,-0.78306 2.59207,-1.49792 l 0.634485,-0.56221 v -8.03873 -8.03875 l -1.040556,-0.0537 c -1.110816,-0.0574 -2.331069,-0.2548 -3.1967,-0.51736 l -0.531861,-0.16134 -0.171526,0.23771 c -0.603887,0.83691 -2.068622,1.88802 -3.180768,2.28255 -1.509261,0.53542 -2.407259,0.40395 -2.924816,-0.42818 -0.569127,-0.91508 -0.0061,-1.67516 1.533182,-2.06963 0.323373,-0.0829 0.714885,-0.22127 0.870026,-0.30754 0.413766,-0.23011 1.131474,-0.80357 1.125842,-0.89957 -0.0028,-0.0456 -0.259347,-0.24783 -0.570368,-0.44937 -0.80932,-0.52445 -2.441569,-2.03012 -2.785136,-2.56914 -0.484787,-0.76059 -0.371648,-1.48215 0.314188,-2.00364 0.705638,-0.53655 1.482765,-0.40257 2.209985,0.38099 2.258342,2.43329 4.439763,3.54626 7.368173,3.75928 l 0.980335,0.0714 V 101.48201 91.094298 l -0.634485,-0.405465 c -0.822933,-0.52588 -1.255134,-0.646654 -2.115193,-0.591046 -1.15522,0.07462 -2.795002,0.918901 -3.571269,1.83858 l -0.271049,0.321123 0.607997,0.205475 c 0.866535,0.292846 2.299477,1.175541 2.968671,1.828699 0.941912,0.919355 0.998467,1.658495 0.178154,2.328193 -0.791872,0.646475 -1.374305,0.538575 -2.589662,-0.479745 -0.507774,-0.425454 -1.042752,-0.767106 -1.55648,-0.994007 -0.707834,-0.31262 -0.861062,-0.345736 -1.600193,-0.345736 -0.743628,0 -0.890239,0.03222 -1.624281,0.356611 -0.638367,0.282127 -0.987089,0.522119 -1.669776,1.149167 -1.395256,1.281548 -1.860745,2.404247 -1.523512,3.674524 0.112199,0.422609 0.151381,0.470659 0.342876,0.420259 0.118918,-0.0313 0.719627,-0.0818 1.334902,-0.11211 3.484616,-0.17207 6.421875,1.46845 8.018067,4.47825 0.260893,0.49192 0.355049,0.79209 0.354764,1.13094 -9.73e-4,1.05517 -1.019946,1.69333 -2.070604,1.29664 -0.393962,-0.14876 -0.729029,-0.52402 -1.155433,-1.29406 -0.759881,-1.37225 -1.896249,-2.31391 -3.219948,-2.66823 -1.676838,-0.44885 -4.646209,0.10001 -6.175198,1.14153 -0.513606,0.34983 -0.694258,0.54916 -1.002567,1.1062 -0.531567,0.96037 -0.819644,2.11697 -0.835916,3.35609 -0.0118,0.8944 -0.04325,1.06124 -0.277073,1.46778 -0.678504,1.17967 -1.007909,2.75351 -0.796841,3.80708 0.29292,1.46211 1.465184,2.79196 3.072311,3.48533 1.061844,0.4581 1.345475,0.78075 1.345475,1.53054 0,0.53664 -0.203413,0.8554 -0.770723,1.20783 -0.28685,0.1782 -0.430294,0.20616 -0.839309,0.16367 -0.271325,-0.0281 -0.650829,-0.13523 -0.843318,-0.23786 -0.192496,-0.10264 -0.391239,-0.18661 -0.44163,-0.18661 -0.184378,0 -0.521214,1.21856 -0.456444,1.65127 0.136215,0.91001 0.894929,1.95099 1.963848,2.69446 0.543852,0.37828 0.581922,0.43121 0.693731,0.96472 0.231676,1.10539 1.346065,2.79978 2.339071,3.55641 1.180983,0.89988 2.265272,1.39378 3.517636,1.60231 0.637042,0.10612 0.677425,0.12989 1.33851,0.78948 0.76408,0.76236 1.180732,1.03974 2.043031,1.36014 0.760977,0.28274 1.776631,0.29867 2.695305,0.0423 z m -3.306237,-4.64027 c -0.193818,-0.0984 -0.390267,-0.349 -0.594588,-0.75842 -0.54506,-1.09219 -1.315638,-1.73438 -2.662098,-2.21858 -0.803766,-0.28904 -1.218709,-0.63256 -1.375553,-1.13878 -0.114607,-0.3699 -0.10548,-0.449 0.09513,-0.82346 0.238984,-0.44612 0.734126,-0.78811 1.141016,-0.78811 0.213523,0 0.317394,-0.12287 0.717344,-0.84856 0.257218,-0.46672 0.715415,-1.11898 1.018214,-1.44948 1.671029,-1.82394 5.304681,-3.49595 6.568992,-3.02272 0.716612,0.26823 1.148591,1.054 0.921414,1.67604 -0.175655,0.48098 -0.5639,0.74186 -1.885781,1.26718 -0.670017,0.26626 -1.400943,0.58591 -1.624284,0.71032 -1.075556,0.59914 -2.006325,1.52798 -2.370882,2.36597 l -0.204202,0.46941 0.258961,0.12524 c 0.142437,0.0689 0.571544,0.42769 0.953564,0.79736 0.770822,0.74586 1.41332,1.78359 1.41332,2.28272 0,0.41913 -0.31112,0.9435 -0.721792,1.21651 -0.425763,0.28307 -1.229955,0.35006 -1.648777,0.13736 z"
         id="path2560"
         inkscape:label="Logo" />
      <text
         xml:space="preserve"
         transform="matrix(0.26458333,0,0,0.26458333,-59.678778,-26.916009)"
         id="text3319"
         style="font-style:normal;font-variant:normal;font-weight:bold;font-stretch:normal;font-size:192px;font-family:'Nimbus Mono PS';-inkscape-font-specification:'Nimbus Mono PS Bold';white-space:pre;shape-inside:url(#rect3321);shape-padding:68.2492;fill:#ffffff;stroke:#000000;stroke-width:5;stroke-dasharray:none"
         inkscape:export-filename="logo.svg"
         inkscape:export-xdpi="96"
         inkscape:export-ydpi="96"
         inkscape:label="Text"><tspan
           x="470.65625"
           y="596.69447"
           id="tspan4325"><tspan
             style="font-family:'Montserrat Alternates';-inkscape-font-specification:'Montserrat Alternates Bold';fill:#fefbfb;stroke:#9752ff"
             id="tspan4323">BrainXio</tspan></tspan></text>
    </g>
  </g>
</svg>
